<?xml version="1.0" encoding="UTF-8" standalone="no"?>
<!-- Created with Inkscape (http://www.inkscape.org/) -->

<svg
   width="210mm"
   height="297mm"
   viewBox="0 0 210 297"
   version="1.1"
   id="svg5"
   inkscape:version="1.1.1 (3bf5ae0d25, 2021-09-20)"
   sodipodi:docname="cadenaCInematica.svg"
   xmlns:inkscape="http://www.inkscape.org/namespaces/inkscape"
   xmlns:sodipodi="http://sodipodi.sourceforge.net/DTD/sodipodi-0.dtd"
   xmlns="http://www.w3.org/2000/svg"
   xmlns:svg="http://www.w3.org/2000/svg">
  <sodipodi:namedview
     id="namedview7"
     pagecolor="#ffffff"
     bordercolor="#666666"
     borderopacity="1.0"
     inkscape:pageshadow="2"
     inkscape:pageopacity="0.0"
     inkscape:pagecheckerboard="0"
     inkscape:document-units="mm"
     showgrid="false"
     inkscape:zoom="0.5"
     inkscape:cx="305.88968"
     inkscape:cy="868.47078"
     inkscape:window-width="1374"
     inkscape:window-height="1026"
     inkscape:window-x="546"
     inkscape:window-y="28"
     inkscape:window-maximized="0"
     inkscape:current-layer="layer4"
     showguides="false"
     inkscape:guide-bbox="true"
     inkscape:rotation="-1">
    <sodipodi:guide
       position="-98.899381,177"
       orientation="0,1"
       id="guide823"
       inkscape:label=""
       inkscape:locked="false"
       inkscape:color="rgb(0,0,255)" />
    <sodipodi:guide
       position="25,217"
       orientation="-1,0"
       id="guide825"
       inkscape:label=""
       inkscape:locked="false"
       inkscape:color="rgb(0,0,255)" />
    <sodipodi:guide
       position="176.32913,349.38426"
       orientation="0,-1"
       id="guide827" />
    <sodipodi:guide
       position="177.61551,237"
       orientation="0,1"
       id="guide829"
       inkscape:label=""
       inkscape:locked="false"
       inkscape:color="rgb(0,0,255)" />
    <sodipodi:guide
       position="185,227.27738"
       orientation="-1,0"
       id="guide833"
       inkscape:label=""
       inkscape:locked="false"
       inkscape:color="rgb(0,0,255)" />
    <sodipodi:guide
       position="31.316896,217"
       orientation="0,1"
       id="guide2061"
       inkscape:label=""
       inkscape:locked="false"
       inkscape:color="rgb(0,0,255)" />
    <sodipodi:guide
       position="29.103846,197"
       orientation="0,1"
       id="guide2063"
       inkscape:label=""
       inkscape:locked="false"
       inkscape:color="rgb(0,0,255)" />
    <sodipodi:guide
       position="15,256.4256"
       orientation="-1,0"
       id="guide2171"
       inkscape:label=""
       inkscape:locked="false"
       inkscape:color="rgb(0,0,255)" />
    <sodipodi:guide
       position="35,237.00001"
       orientation="-1,0"
       id="guide2173"
       inkscape:label=""
       inkscape:locked="false"
       inkscape:color="rgb(0,0,255)" />
    <sodipodi:guide
       position="165,244.08334"
       orientation="-1,0"
       id="guide2229"
       inkscape:label=""
       inkscape:locked="false"
       inkscape:color="rgb(0,0,255)" />
    <sodipodi:guide
       position="165,244.61251"
       orientation="-1,0"
       id="guide2231"
       inkscape:label=""
       inkscape:locked="false"
       inkscape:color="rgb(0,0,255)" />
  </sodipodi:namedview>
  <defs
     id="defs2">
    <rect
       x="228.39503"
       y="1303.6262"
       width="539.67749"
       height="196.29636"
       id="rect11715" />
    <rect
       x="349.54803"
       y="1349.6315"
       width="596.85588"
       height="204.07145"
       id="rect9861" />
    <marker
       style="overflow:visible"
       id="Arrow1Lstart"
       refX="0.0"
       refY="0.0"
       orient="auto"
       inkscape:stockid="Arrow1Lstart"
       inkscape:isstock="true">
      <path
         transform="scale(0.8) translate(12.5,0)"
         style="fill-rule:evenodd;fill:context-stroke;stroke:context-stroke;stroke-width:1.0pt"
         d="M 0.0,0.0 L 5.0,-5.0 L -12.5,0.0 L 5.0,5.0 L 0.0,0.0 z "
         id="path2328" />
    </marker>
    <marker
       style="overflow:visible"
       id="Arrow1Lstart-5"
       refX="0"
       refY="0"
       orient="auto"
       inkscape:stockid="Arrow1Lstart"
       inkscape:isstock="true">
      <path
         transform="matrix(0.8,0,0,0.8,10,0)"
         style="fill:context-stroke;fill-rule:evenodd;stroke:context-stroke;stroke-width:1pt"
         d="M 0,0 5,-5 -12.5,0 5,5 Z"
         id="path2328-3" />
    </marker>
    <marker
       style="overflow:visible"
       id="Arrow1Lstart-6"
       refX="0"
       refY="0"
       orient="auto"
       inkscape:stockid="Arrow1Lstart"
       inkscape:isstock="true">
      <path
         transform="matrix(0.8,0,0,0.8,10,0)"
         style="fill:context-stroke;fill-rule:evenodd;stroke:context-stroke;stroke-width:1pt"
         d="M 0,0 5,-5 -12.5,0 5,5 Z"
         id="path2328-2" />
    </marker>
    <marker
       style="overflow:visible"
       id="Arrow1Lstart-1"
       refX="0"
       refY="0"
       orient="auto"
       inkscape:stockid="Arrow1Lstart"
       inkscape:isstock="true">
      <path
         transform="matrix(0.8,0,0,0.8,10,0)"
         style="fill:context-stroke;fill-rule:evenodd;stroke:context-stroke;stroke-width:1pt"
         d="M 0,0 5,-5 -12.5,0 5,5 Z"
         id="path2328-27" />
    </marker>
    <rect
       x="228.39503"
       y="1303.6262"
       width="539.67749"
       height="196.29636"
       id="rect11715-9" />
    <rect
       x="228.39503"
       y="1303.6262"
       width="539.67749"
       height="196.29636"
       id="rect11715-6" />
    <rect
       x="228.39503"
       y="1303.6262"
       width="539.67749"
       height="196.29636"
       id="rect11715-62" />
  </defs>
  <g
     inkscape:groupmode="layer"
     id="layer3"
     inkscape:label="Eslabón 4"
     style="display:inline">
    <path
       id="rect1492-6"
       style="fill:#0a78ff;fill-opacity:1;stroke:#000000;stroke-width:0.0873835;stroke-miterlimit:4;stroke-dasharray:none"
       d="m 167.88439,132.86722 a 10.305672,7.7468952 4.8682886 0 0 -0.40664,-0.13573 L 122.92613,116.393 a 10.30584,7.7478208 4.8592538 0 0 -0.31892,-0.12788 10.30584,7.7478208 4.8592538 0 0 -13.55124,3.50035 10.30584,7.7478208 4.8592538 0 0 5.30307,10.41482 10.30584,7.7478208 4.8592538 0 0 0.68032,0.22766 l 44.10073,16.17312 a 10.305672,7.7468952 4.8682886 0 0 0.49733,0.19943 10.305672,7.7468952 4.8682886 0 0 13.55063,-3.49941 10.305672,7.7468952 4.8682886 0 0 -5.30366,-10.41387 z m -47.99751,-11.89484 a 2.4752286,3.259571 89.871195 0 1 1.5133,3.30511 2.4752286,3.259571 89.871195 0 1 -4.35434,1.15327 2.4752286,3.259571 89.871195 0 1 -1.51329,-3.30511 2.4752286,3.259571 89.871195 0 1 4.35433,-1.15327 z m 45.15894,16.56805 a 2.4752286,3.259571 89.871195 0 1 1.5133,3.30511 2.4752286,3.259571 89.871195 0 1 -4.35426,1.15315 2.4752286,3.259571 89.871195 0 1 -1.51337,-3.305 2.4752286,3.259571 89.871195 0 1 4.35433,-1.15326 z" />
    <text
       xml:space="preserve"
       transform="scale(0.26458333)"
       id="text9859"
       style="font-style:normal;font-weight:normal;font-size:40px;line-height:1.25;font-family:sans-serif;white-space:pre;shape-inside:url(#rect9861);fill:#000000;fill-opacity:1;stroke:none" />
  </g>
  <g
     inkscape:groupmode="layer"
     id="layer4"
     inkscape:label="Texto"
     style="display:inline">
    <text
       xml:space="preserve"
       transform="matrix(0.18831974,0,0,0.1416971,32.323175,20.653315)"
       id="text11713"
       style="font-style:normal;font-weight:normal;font-size:40px;line-height:1.25;font-family:sans-serif;white-space:pre;shape-inside:url(#rect11715);fill:#000000;fill-opacity:1;stroke:none"><tspan
         x="228.39453"
         y="1339.0176"
         id="tspan949">Eslabón 1</tspan></text>
    <text
       xml:space="preserve"
       transform="matrix(0.18831974,0,0,0.1416971,116.53028,-12.141188)"
       id="text11713-3"
       style="font-style:normal;font-weight:normal;font-size:40px;line-height:1.25;font-family:sans-serif;white-space:pre;shape-inside:url(#rect11715-9);fill:#000000;fill-opacity:1;stroke:none"><tspan
         x="228.39453"
         y="1339.0176"
         id="tspan951">Eslabón 4</tspan></text>
    <text
       xml:space="preserve"
       transform="matrix(0.18831974,0,0,0.1416971,67.376484,-18.348977)"
       id="text11713-0"
       style="font-style:normal;font-weight:normal;font-size:40px;line-height:1.25;font-family:sans-serif;white-space:pre;shape-inside:url(#rect11715-6);fill:#000000;fill-opacity:1;stroke:none"><tspan
         x="228.39453"
         y="1339.0176"
         id="tspan953">Eslabón 3</tspan></text>
    <text
       xml:space="preserve"
       transform="matrix(0.18831974,0,0,0.1416971,-41.660273,-74.402625)"
       id="text11713-6"
       style="font-style:normal;font-weight:normal;font-size:40px;line-height:1.25;font-family:sans-serif;white-space:pre;shape-inside:url(#rect11715-62);fill:#000000;fill-opacity:1;stroke:none"><tspan
         x="228.39453"
         y="1339.0176"
         id="tspan955">Eslabón 2</tspan></text>
    <path
       style="fill:none;stroke:#000000;stroke-width:0.241259;stroke-linecap:butt;stroke-linejoin:miter;stroke-miterlimit:4;stroke-dasharray:none;stroke-opacity:1;marker-start:url(#Arrow1Lstart)"
       d="m 59.8776,184.64631 33.899964,18.18956"
       id="path2326" />
    <path
       style="fill:none;stroke:#000000;stroke-width:0.189602;stroke-linecap:butt;stroke-linejoin:miter;stroke-miterlimit:4;stroke-dasharray:none;stroke-opacity:1;marker-start:url(#Arrow1Lstart-5)"
       d="m 100.60167,149.59018 25.73823,14.79646"
       id="path2326-5" />
    <path
       style="fill:none;stroke:#000000;stroke-width:0.194862;stroke-linecap:butt;stroke-linejoin:miter;stroke-miterlimit:4;stroke-dasharray:none;stroke-opacity:1;marker-start:url(#Arrow1Lstart-6)"
       d="m 167.63401,147.52014 15.6163,21.94459"
       id="path2326-9" />
    <path
       style="fill:none;stroke:#000000;stroke-width:0.262487;stroke-linecap:butt;stroke-linejoin:miter;stroke-miterlimit:4;stroke-dasharray:none;stroke-opacity:1;marker-start:url(#Arrow1Lstart-1)"
       d="M 50.484975,141.11908 20.999118,116.36433"
       id="path2326-0" />
  </g>
  <g
     inkscape:label="Eslabón 1,2,3"
     inkscape:groupmode="layer"
     id="layer1"
     style="display:inline">
    <path
       id="rect1492"
       style="fill:#95dd4d;stroke:#000000;stroke-width:0.0873835;stroke-miterlimit:4;stroke-dasharray:none"
       d="m 84.182882,143.38575 a 10.478759,7.6189334 2.3545363 0 0 -0.443965,0.0121 H 34.254636 a 10.478751,7.6199728 2.3555872 0 0 -0.360495,-0.01 10.478751,7.6199728 2.3555872 0 0 -10.192235,7.62571 10.478751,7.6199728 2.3555872 0 0 10.74957,7.62572 10.478751,7.6199728 2.3555872 0 0 0.743113,-0.0196 h 48.983454 a 10.478759,7.6189334 2.3545363 0 0 0.562176,0.0153 10.478759,7.6189334 2.3545363 0 0 10.192234,-7.62466 10.478759,7.6189334 2.3545363 0 0 -10.749571,-7.62466 z m -50.037293,5.13844 a 3.2585789,2.4759822 0 0 1 3.258639,2.476 3.2585789,2.4759822 0 0 1 -3.258639,2.47601 3.2585789,2.4759822 0 0 1 -3.258639,-2.47601 3.2585789,2.4759822 0 0 1 3.258639,-2.476 z m 50.162758,0.006 a 3.2585789,2.4759822 0 0 1 3.258642,2.47601 3.2585789,2.4759822 0 0 1 -3.258642,2.47587 3.2585789,2.4759822 0 0 1 -3.258637,-2.47587 3.2585789,2.4759822 0 0 1 3.258637,-2.47601 z" />
    <path
       id="rect1492-3"
       style="fill:#95ddfa;fill-opacity:1;stroke:#000000;stroke-width:0.0873835;stroke-miterlimit:4;stroke-dasharray:none"
       d="m 111.03491,118.06034 a 7.6793225,10.396355 85.965333 0 0 -0.29057,0.25494 L 77.059355,145.8148 a 7.6798823,10.397009 85.978133 0 0 -0.254892,0.19364 7.6798823,10.397009 85.978133 0 0 0.425511,10.85503 7.6798823,10.397009 85.978133 0 0 14.681041,-0.78278 7.6798823,10.397009 85.978133 0 0 0.486859,-0.42636 l 33.344056,-27.22119 a 7.6793225,10.396355 85.965333 0 0 0.3975,-0.30197 7.6793225,10.396355 85.965333 0 0 -0.42451,-10.85434 7.6793225,10.396355 85.965333 0 0 -14.68001,0.78351 z m -29.099631,31.30469 a 3.2613843,2.4738524 0.16323977 0 1 4.609114,-0.12544 3.2613843,2.4738524 0.16323977 0 1 0.172668,3.49638 3.2613843,2.4738524 0.16323977 0 1 -4.609115,0.12543 3.2613843,2.4738524 0.16323977 0 1 -0.172667,-3.49637 z m 34.152781,-27.87236 a 3.2613843,2.4738524 0.16323977 0 1 4.60913,-0.12544 3.2613843,2.4738524 0.16323977 0 1 0.17252,3.49628 3.2613843,2.4738524 0.16323977 0 1 -4.60898,0.12553 3.2613843,2.4738524 0.16323977 0 1 -0.17267,-3.49637 z" />
    <path
       id="rect1492-7"
       style="fill:#396641;fill-opacity:1;stroke:#000000;stroke-width:0.0873835;stroke-miterlimit:4;stroke-dasharray:none"
       d="m 60.089242,184.32784 a 10.011197,7.9747679 0.62360061 0 0 -0.161723,-0.31389 L 43.57225,148.58385 a 10.012404,7.9748877 0.61256421 0 0 -0.106905,-0.26136 10.012404,7.9748877 0.61256421 0 0 -12.855841,-4.77711 10.012404,7.9748877 0.61256421 0 0 -5.934284,10.21697 10.012404,7.9748877 0.61256421 0 0 0.270078,0.52556 l 16.189743,35.07152 a 10.011197,7.9747679 0.62360061 0 0 0.166718,0.40758 10.011197,7.9747679 0.62360061 0 0 12.854537,4.77744 10.011197,7.9747679 0.62360061 0 0 5.932963,-10.21661 z M 37.158463,150.20012 a 2.4724552,3.2632272 89.898311 0 1 -2.003371,3.1515 2.4724552,3.2632272 89.898311 0 1 -4.157427,-1.5148 2.4724552,3.2632272 89.898311 0 1 2.003368,-3.15149 2.4724552,3.2632272 89.898311 0 1 4.15743,1.51479 z m 16.571846,35.91792 a 2.4724552,3.2632272 89.898311 0 1 -2.003375,3.1515 2.4724552,3.2632272 89.898311 0 1 -4.157262,-1.51483 2.4724552,3.2632272 89.898311 0 1 2.003208,-3.15146 2.4724552,3.2632272 89.898311 0 1 4.157429,1.51479 z" />
  </g>
  <g
     inkscape:groupmode="layer"
     id="layer2"
     inkscape:label="Guías"
     style="display:inline" />
</svg>
